<svg xmlns="http://www.w3.org/2000/svg" x="0px" y="0px"
width="124" height="64"
viewBox="0 0 172 172"
style=" fill:#000000;"><g transform="translate(16.512,16.512) scale(0.808,0.808)"><g fill="none" fill-rule="nonzero" stroke="none" stroke-width="none" stroke-linecap="butt" stroke-linejoin="none" stroke-miterlimit="10" stroke-dasharray="" stroke-dashoffset="0" font-family="none" font-weight="none" font-size="none" text-anchor="none" style="mix-blend-mode: normal"><g fill="#cccccc" stroke="#cccccc" stroke-width="40" stroke-linejoin="round"><path d="M99.195,68.94v3.7h-10.97v30.42h-4.48v-30.42h-10.94v-3.7z"></path></g><g stroke="#cccccc" stroke-width="40" stroke-linejoin="round"><path d="M83.3125,34.9375v69.875h-59.125c-2.96486,-0.00885 -5.36615,-2.41014 -5.375,-5.375v-64.5z" fill="#5aaae7"></path><path d="M163.9375,147.8125v8.0625c0,1.48427 -1.20323,2.6875 -2.6875,2.6875h-150.5c-1.48427,0 -2.6875,-1.20323 -2.6875,-2.6875v-8.0625z" fill="#bcbec0"></path><path d="M147.8125,115.5625l16.125,32.25h-155.875l16.125,-32.25z" fill="#e6e7e8"></path><path d="M29.5625,64.5v-16.125h21.5v16.125z" fill="#ff9811"></path><path d="M153.1875,18.8125v80.625c-0.00885,2.96486 -2.41014,5.36615 -5.375,5.375h-64.5v-91.375h64.5c2.96486,0.00885 5.36615,2.41014 5.375,5.375z" fill="#bddbff"></path><path d="M18.8125,34.9375v-16.125c0.00885,-2.96486 2.41014,-5.36615 5.375,-5.375h59.125v21.5z" fill="#ff6243"></path><path d="M153.1875,18.8125v80.625c-0.00885,2.96486 -2.41014,5.36615 -5.375,5.375h-64.5v-34.66875c20.80422,-15.83779 38.85537,-34.99671 53.4275,-56.70625h11.0725c2.96486,0.00885 5.36615,2.41014 5.375,5.375z" fill="#9bc9ff"></path><path d="M83.3125,70.14375v34.66875h-57.9425c20.57682,-9.30162 40.01817,-20.93397 57.9425,-34.66875z" fill="#3d9ae2"></path><path d="M166.625,147.8125v8.0625c0,2.96853 -2.40647,5.375 -5.375,5.375h-150.5c-2.96853,0 -5.375,-2.40647 -5.375,-5.375v-8.0625c-0.00039,-0.4169 0.09622,-0.82818 0.28219,-1.20131l16.125,-32.25c0.45533,-0.9112 1.38668,-1.48666 2.40531,-1.48619h123.625c1.02347,-0.00559 1.96127,0.57064 2.41875,1.48619l16.125,32.25c0.18132,0.37425 0.27332,0.78548 0.26875,1.20131zM12.41088,145.125h147.17825l-13.4375,-26.875h-120.30325zM161.25,155.875v-5.375h-150.5v5.375z" fill="#000000"></path><path d="M26.875,139.75v-5.375h5.375v5.375z" fill="#000000"></path><path d="M37.625,139.75v-5.375h5.375v5.375z" fill="#000000"></path><path d="M48.375,139.75v-5.375h75.25v5.375z" fill="#000000"></path><path d="M129,139.75v-5.375h5.375v5.375z" fill="#000000"></path><path d="M139.75,139.75v-5.375h5.375v5.375z" fill="#000000"></path><path d="M40.3125,129v-5.375h5.375v5.375z" fill="#000000"></path><path d="M29.5625,129v-5.375h5.375v5.375z" fill="#000000"></path><path d="M51.0625,129v-5.375h5.375v5.375z" fill="#000000"></path><path d="M61.8125,129v-5.375h5.375v5.375z" fill="#000000"></path><path d="M72.5625,129v-5.375h5.375v5.375z" fill="#000000"></path><path d="M83.3125,129v-5.375h5.375v5.375z" fill="#000000"></path><path d="M94.0625,129v-5.375h5.375v5.375z" fill="#000000"></path><path d="M104.8125,129v-5.375h5.375v5.375z" fill="#000000"></path><path d="M115.5625,129v-5.375h5.375v5.375z" fill="#000000"></path><path d="M126.3125,129v-5.375h5.375v5.375z" fill="#000000"></path><path d="M137.0625,129v-5.375h5.375v5.375z" fill="#000000"></path><path d="M16.125,99.4375v-80.625c0,-4.4528 3.6097,-8.0625 8.0625,-8.0625h123.625c4.4528,0 8.0625,3.6097 8.0625,8.0625v80.625c0,4.4528 -3.6097,8.0625 -8.0625,8.0625h-123.625c-4.4528,0 -8.0625,-3.6097 -8.0625,-8.0625zM24.1875,102.125h56.4375v-64.5h-59.125v61.8125c0,1.48427 1.20323,2.6875 2.6875,2.6875zM147.8125,16.125h-61.8125v86h61.8125c1.48427,0 2.6875,-1.20323 2.6875,-2.6875v-80.625c0,-1.48427 -1.20323,-2.6875 -2.6875,-2.6875zM21.5,18.8125v13.4375h59.125v-16.125h-56.4375c-1.48427,0 -2.6875,1.20323 -2.6875,2.6875z" fill="#000000"></path><path d="M26.875,26.875v-5.375h5.375v5.375z" fill="#000000"></path><path d="M37.625,26.875v-5.375h5.375v5.375z" fill="#000000"></path><path d="M48.375,26.875v-5.375h5.375v5.375z" fill="#000000"></path><path d="M26.875,64.5v-16.125c0,-1.48427 1.20323,-2.6875 2.6875,-2.6875h21.5c1.48427,0 2.6875,1.20323 2.6875,2.6875v16.125c0,1.48427 -1.20323,2.6875 -2.6875,2.6875h-21.5c-1.48427,0 -2.6875,-1.20323 -2.6875,-2.6875zM32.25,61.8125h16.125v-10.75h-16.125z" fill="#000000"></path><path d="M59.125,53.75v-5.375h16.125v5.375z" fill="#000000"></path><path d="M59.125,64.5v-5.375h16.125v5.375z" fill="#000000"></path><path d="M26.875,83.3125v-5.375h10.75v5.375z" fill="#000000"></path><path d="M43,83.3125v-5.375h32.25v5.375z" fill="#000000"></path><path d="M26.875,94.0625v-5.375h48.375v5.375z" fill="#000000"></path><path d="M97.53744,39.52506c-1.04915,-1.04947 -1.04915,-2.75066 0,-3.80013l8.0625,-8.0625l3.80013,3.80012l-6.16244,6.16244l6.16244,6.16244l-3.80013,3.80013z" fill="#000000"></path><path d="M127.09994,43.78744l6.16244,-6.16244l-6.16244,-6.16244l3.80012,-3.80012l8.0625,8.0625c1.04915,1.04947 1.04915,2.75066 0,3.80013l-8.0625,8.0625z" fill="#000000"></path><path d="M118.10697,46.53576l-5.09609,-1.70048l5.38046,-16.12444l5.09609,1.70048z" fill="#000000"></path><path d="M96.75,61.8125v-5.375h10.75v5.375z" fill="#000000"></path><path d="M112.875,61.8125v-5.375h21.5v5.375z" fill="#000000"></path><path d="M102.125,72.5625v-5.375h16.125v5.375z" fill="#000000"></path><path d="M123.625,72.5625v-5.375h10.75v5.375z" fill="#000000"></path><path d="M96.75,83.3125v-5.375h10.75v5.375z" fill="#000000"></path><path d="M112.875,83.3125v-5.375h16.125v5.375z" fill="#000000"></path><path d="M102.125,94.0625v-5.375h21.5v5.375z" fill="#000000"></path><path d="M129,94.0625v-5.375h5.375v5.375z" fill="#000000"></path></g><path d="M0,172v-172h172v172z" fill="none" stroke="none" stroke-width="1" stroke-linejoin="miter"></path><g stroke="none" stroke-width="1" stroke-linejoin="miter"><path d="M83.3125,34.9375v69.875h-59.125c-2.96486,-0.00885 -5.36615,-2.41014 -5.375,-5.375v-64.5z" fill="#5aaae7"></path><path d="M163.9375,147.8125v8.0625c0,1.48427 -1.20323,2.6875 -2.6875,2.6875h-150.5c-1.48427,0 -2.6875,-1.20323 -2.6875,-2.6875v-8.0625z" fill="#bcbec0"></path><path d="M147.8125,115.5625l16.125,32.25h-155.875l16.125,-32.25z" fill="#e6e7e8"></path><rect x="11" y="18" transform="scale(2.6875,2.6875)" width="8" height="6" fill="#ff9811"></rect><path d="M153.1875,18.8125v80.625c-0.00885,2.96486 -2.41014,5.36615 -5.375,5.375h-64.5v-91.375h64.5c2.96486,0.00885 5.36615,2.41014 5.375,5.375z" fill="#bddbff"></path><path d="M18.8125,34.9375v-16.125c0.00885,-2.96486 2.41014,-5.36615 5.375,-5.375h59.125v21.5z" fill="#ff6243"></path><path d="M153.1875,18.8125v80.625c-0.00885,2.96486 -2.41014,5.36615 -5.375,5.375h-64.5v-34.66875c20.80422,-15.83779 38.85537,-34.99671 53.4275,-56.70625h11.0725c2.96486,0.00885 5.36615,2.41014 5.375,5.375z" fill="#9bc9ff"></path><path d="M83.3125,70.14375v34.66875h-57.9425c20.57682,-9.30162 40.01817,-20.93397 57.9425,-34.66875z" fill="#3d9ae2"></path><path d="M166.35625,146.61119l-16.125,-32.25c-0.45748,-0.91555 -1.39528,-1.49177 -2.41875,-1.48619h-123.625c-1.01863,-0.00047 -1.94998,0.57499 -2.40531,1.48619l-16.125,32.25c-0.18597,0.37313 -0.28258,0.78441 -0.28219,1.20131v8.0625c0,2.96853 2.40647,5.375 5.375,5.375h150.5c2.96853,0 5.375,-2.40647 5.375,-5.375v-8.0625c0.00457,-0.41584 -0.08743,-0.82706 -0.26875,-1.20131zM25.84838,118.25h120.30325l13.4375,26.875h-147.17825zM10.75,155.875v-5.375h150.5v5.375z" fill="#000000"></path><rect x="10" y="50" transform="scale(2.6875,2.6875)" width="2" height="2" fill="#000000"></rect><rect x="14" y="50" transform="scale(2.6875,2.6875)" width="2" height="2" fill="#000000"></rect><rect x="18" y="50" transform="scale(2.6875,2.6875)" width="28" height="2" fill="#000000"></rect><rect x="48" y="50" transform="scale(2.6875,2.6875)" width="2" height="2" fill="#000000"></rect><rect x="52" y="50" transform="scale(2.6875,2.6875)" width="2" height="2" fill="#000000"></rect><rect x="15" y="46" transform="scale(2.6875,2.6875)" width="2" height="2" fill="#000000"></rect><rect x="11" y="46" transform="scale(2.6875,2.6875)" width="2" height="2" fill="#000000"></rect><rect x="19" y="46" transform="scale(2.6875,2.6875)" width="2" height="2" fill="#000000"></rect><rect x="23" y="46" transform="scale(2.6875,2.6875)" width="2" height="2" fill="#000000"></rect><rect x="27" y="46" transform="scale(2.6875,2.6875)" width="2" height="2" fill="#000000"></rect><rect x="31" y="46" transform="scale(2.6875,2.6875)" width="2" height="2" fill="#000000"></rect><rect x="35" y="46" transform="scale(2.6875,2.6875)" width="2" height="2" fill="#000000"></rect><rect x="39" y="46" transform="scale(2.6875,2.6875)" width="2" height="2" fill="#000000"></rect><rect x="43" y="46" transform="scale(2.6875,2.6875)" width="2" height="2" fill="#000000"></rect><rect x="47" y="46" transform="scale(2.6875,2.6875)" width="2" height="2" fill="#000000"></rect><rect x="51" y="46" transform="scale(2.6875,2.6875)" width="2" height="2" fill="#000000"></rect><path d="M24.1875,107.5h123.625c4.4528,0 8.0625,-3.6097 8.0625,-8.0625v-80.625c0,-4.4528 -3.6097,-8.0625 -8.0625,-8.0625h-123.625c-4.4528,0 -8.0625,3.6097 -8.0625,8.0625v80.625c0,4.4528 3.6097,8.0625 8.0625,8.0625zM21.5,99.4375v-61.8125h59.125v64.5h-56.4375c-1.48427,0 -2.6875,-1.20323 -2.6875,-2.6875zM150.5,18.8125v80.625c0,1.48427 -1.20323,2.6875 -2.6875,2.6875h-61.8125v-86h61.8125c1.48427,0 2.6875,1.20323 2.6875,2.6875zM24.1875,16.125h56.4375v16.125h-59.125v-13.4375c0,-1.48427 1.20323,-2.6875 2.6875,-2.6875z" fill="#000000"></path><rect x="10" y="8" transform="scale(2.6875,2.6875)" width="2" height="2" fill="#000000"></rect><rect x="14" y="8" transform="scale(2.6875,2.6875)" width="2" height="2" fill="#000000"></rect><rect x="18" y="8" transform="scale(2.6875,2.6875)" width="2" height="2" fill="#000000"></rect><path d="M29.5625,67.1875h21.5c1.48427,0 2.6875,-1.20323 2.6875,-2.6875v-16.125c0,-1.48427 -1.20323,-2.6875 -2.6875,-2.6875h-21.5c-1.48427,0 -2.6875,1.20323 -2.6875,2.6875v16.125c0,1.48427 1.20323,2.6875 2.6875,2.6875zM32.25,51.0625h16.125v10.75h-16.125z" fill="#000000"></path><rect x="22" y="18" transform="scale(2.6875,2.6875)" width="6" height="2" fill="#000000"></rect><rect x="22" y="22" transform="scale(2.6875,2.6875)" width="6" height="2" fill="#000000"></rect><rect x="10" y="29" transform="scale(2.6875,2.6875)" width="4" height="2" fill="#000000"></rect><rect x="16" y="29" transform="scale(2.6875,2.6875)" width="12" height="2" fill="#000000"></rect><rect x="10" y="33" transform="scale(2.6875,2.6875)" width="18" height="2" fill="#000000"></rect><path d="M105.59994,47.58756l3.80013,-3.80013l-6.16244,-6.16244l6.16244,-6.16244l-3.80013,-3.80012l-8.0625,8.0625c-1.04915,1.04947 -1.04915,2.75066 0,3.80013z" fill="#000000"></path><path d="M130.90006,47.58756l8.0625,-8.0625c1.04915,-1.04947 1.04915,-2.75066 0,-3.80013l-8.0625,-8.0625l-3.80012,3.80012l6.16244,6.16244l-6.16244,6.16244z" fill="#000000"></path><rect x="-2.515" y="45.16905" transform="rotate(-71.547) scale(2.6875,2.6875)" width="6.325" height="1.999" fill="#000000"></rect><rect x="36" y="21" transform="scale(2.6875,2.6875)" width="4" height="2" fill="#000000"></rect><rect x="42" y="21" transform="scale(2.6875,2.6875)" width="8" height="2" fill="#000000"></rect><rect x="38" y="25" transform="scale(2.6875,2.6875)" width="6" height="2" fill="#000000"></rect><rect x="46" y="25" transform="scale(2.6875,2.6875)" width="4" height="2" fill="#000000"></rect><rect x="36" y="29" transform="scale(2.6875,2.6875)" width="4" height="2" fill="#000000"></rect><rect x="42" y="29" transform="scale(2.6875,2.6875)" width="6" height="2" fill="#000000"></rect><rect x="38" y="33" transform="scale(2.6875,2.6875)" width="8" height="2" fill="#000000"></rect><rect x="48" y="33" transform="scale(2.6875,2.6875)" width="2" height="2" fill="#000000"></rect></g><g fill="#cccccc" stroke="none" stroke-width="1" stroke-linejoin="miter"><path d="M99.195,68.94v3.7h-10.97v30.42h-4.48v-30.42h-10.94v-3.7z"></path></g><path d="" fill="none" stroke="none" stroke-width="1" stroke-linejoin="miter"></path><path d="" fill="none" stroke="none" stroke-width="1" stroke-linejoin="miter"></path></g></g></svg>